<svg width="24" height="24" viewBox="0 0 24 24" fill="none" xmlns="http://www.w3.org/2000/svg">
<g id="Icon Arrow">
<path id="Vector" d="M13.4081 3.34358C13.0748 3.02615 12.5474 3.03897 12.2299 3.37223C11.9125 3.70548 11.9253 4.23296 12.2586 4.55039L19.2044 11.1665H2.83333C2.3731 11.1665 2 11.5396 2 11.9998C2 12.4601 2.3731 12.8332 2.83333 12.8332H19.2048L12.2586 19.4496C11.9253 19.7671 11.9125 20.2945 12.2299 20.6278C12.5474 20.961 13.0748 20.9739 13.4081 20.6564L21.6514 12.8046C21.8392 12.6256 21.9503 12.3974 21.9846 12.1601C21.9947 12.1083 22 12.0547 22 11.9998C22 11.9446 21.9946 11.8906 21.9844 11.8384C21.9498 11.6017 21.8388 11.374 21.6514 11.1955L13.4081 3.34358Z" fill="white"/>
</g>
</svg>
