<svg width="24" height="24" viewBox="0 0 24 24" fill="none" xmlns="http://www.w3.org/2000/svg">
<g id="Icon / facebook">
<path id="Vector" d="M5.45455 4C4.65891 4 4 4.65891 4 5.45455V18.5455C4 19.3411 4.65891 20 5.45455 20H18.5455C19.3411 20 20 19.3411 20 18.5455V5.45455C20 4.65891 19.3411 4 18.5455 4H5.45455ZM5.45455 5.45455H18.5455V18.5455H14.7724V13.6364H16.6589L16.9316 11.4545H14.7731V10.0451C14.7731 9.40945 14.9287 8.97745 15.8407 8.97745H17.0225V7C16.8211 6.97455 16.1222 6.93164 15.3185 6.93164C13.6422 6.93164 12.5004 7.94036 12.5004 9.81818V11.4545H10.5913V13.6364H12.4996V18.5455H5.45455V5.45455Z" fill="white"/>
</g>
</svg>
