<svg width="24" height="24" viewBox="0 0 24 24" fill="none" xmlns="http://www.w3.org/2000/svg">
<g id="Icon / Instagram">
<g id="Vector">
<path d="M16.3636 6.90909C16.1708 6.90909 15.9858 6.98571 15.8494 7.1221C15.713 7.25849 15.6364 7.44348 15.6364 7.63636C15.6364 7.82925 15.713 8.01423 15.8494 8.15062C15.9858 8.28701 16.1708 8.36364 16.3636 8.36364C16.5565 8.36364 16.7415 8.28701 16.8779 8.15062C17.0143 8.01423 17.0909 7.82925 17.0909 7.63636C17.0909 7.44348 17.0143 7.25849 16.8779 7.1221C16.7415 6.98571 16.5565 6.90909 16.3636 6.90909Z" fill="white"/>
<path fill-rule="evenodd" clip-rule="evenodd" d="M12 8.36364C11.0356 8.36364 10.1107 8.74675 9.4287 9.4287C8.74675 10.1107 8.36364 11.0356 8.36364 12C8.36364 12.9644 8.74675 13.8893 9.4287 14.5713C10.1107 15.2532 11.0356 15.6364 12 15.6364C12.9644 15.6364 13.8893 15.2532 14.5713 14.5713C15.2532 13.8893 15.6364 12.9644 15.6364 12C15.6364 11.0356 15.2532 10.1107 14.5713 9.4287C13.8893 8.74675 12.9644 8.36364 12 8.36364ZM9.81818 12C9.81818 12.5787 10.0481 13.1336 10.4572 13.5428C10.8664 13.9519 11.4213 14.1818 12 14.1818C12.5787 14.1818 13.1336 13.9519 13.5428 13.5428C13.9519 13.1336 14.1818 12.5787 14.1818 12C14.1818 11.4213 13.9519 10.8664 13.5428 10.4572C13.1336 10.0481 12.5787 9.81818 12 9.81818C11.4213 9.81818 10.8664 10.0481 10.4572 10.4572C10.0481 10.8664 9.81818 11.4213 9.81818 12Z" fill="white"/>
<path fill-rule="evenodd" clip-rule="evenodd" d="M4.85205 4.85205C5.39761 4.30649 6.13755 4 6.90909 4H17.0909C17.8624 4 18.6024 4.30649 19.1479 4.85205C19.6935 5.39761 20 6.13755 20 6.90909V17.0909C20 17.8624 19.6935 18.6024 19.1479 19.1479C18.6024 19.6935 17.8624 20 17.0909 20H6.90909C6.13755 20 5.39761 19.6935 4.85205 19.1479C4.30649 18.6024 4 17.8624 4 17.0909V6.90909C4 6.13755 4.30649 5.39761 4.85205 4.85205ZM6.90909 5.45455H17.0909C17.4767 5.45455 17.8466 5.60779 18.1194 5.88057C18.3922 6.15335 18.5455 6.52332 18.5455 6.90909V17.0909C18.5455 17.4767 18.3922 17.8466 18.1194 18.1194C17.8466 18.3922 17.4767 18.5455 17.0909 18.5455H6.90909C6.52332 18.5455 6.15335 18.3922 5.88057 18.1194C5.60779 17.8466 5.45455 17.4767 5.45455 17.0909V6.90909C5.45455 6.52332 5.60779 6.15335 5.88057 5.88057C6.15335 5.60779 6.52332 5.45455 6.90909 5.45455Z" fill="white"/>
</g>
</g>
</svg>
