<svg width="24" height="24" viewBox="0 0 24 24" fill="none" xmlns="http://www.w3.org/2000/svg">
<g id="Icon / Globe">
<path id="Vector" d="M12 1.99902C17.5237 1.99902 22.0015 6.47687 22.0015 12.0006C22.0015 17.5243 17.5237 22.0021 12 22.0021C6.47629 22.0021 1.99844 17.5243 1.99844 12.0006C1.99844 6.47687 6.47629 1.99902 12 1.99902ZM14.9389 16.5003H9.06109C9.71313 18.9144 10.8465 20.5021 12 20.5021C13.1535 20.5021 14.2869 18.9144 14.9389 16.5003ZM7.5083 16.5009L4.78582 16.5007C5.74416 18.0338 7.1776 19.2394 8.87999 19.9114C8.35771 19.0915 7.92672 18.0653 7.60972 16.8959L7.5083 16.5009ZM19.2142 16.5007L16.4917 16.5009C16.1679 17.8346 15.7003 19.0004 15.1189 19.9114C16.7159 19.2814 18.0756 18.1824 19.029 16.7843L19.2142 16.5007ZM7.09342 9.99992H3.73581L3.73105 10.0171C3.57897 10.6535 3.49844 11.3176 3.49844 12.0006C3.49844 13.0567 3.69103 14.0679 4.04301 15.0009L7.21617 15.0005C7.07387 14.0514 6.99844 13.0432 6.99844 12.0006C6.99844 11.3166 7.03091 10.6474 7.09342 9.99992ZM15.3969 9.99999H8.60307C8.53505 10.6403 8.49844 11.31 8.49844 12.0006C8.49844 13.0601 8.58459 14.0704 8.73818 15.0007H15.2618C15.4154 14.0704 15.5015 13.0601 15.5015 12.0006C15.5015 11.31 15.4649 10.6403 15.3969 9.99999ZM20.2646 9.99909L16.9066 9.99994C16.9691 10.6474 17.0015 11.3166 17.0015 12.0006C17.0015 13.0432 16.9261 14.0514 16.7838 15.0005L19.957 15.0009C20.309 14.0679 20.5015 13.0567 20.5015 12.0006C20.5015 11.3112 20.4195 10.6409 20.2646 9.99909ZM8.88104 4.08973L8.85814 4.09844C6.81082 4.91315 5.15481 6.50046 4.25014 8.50033L7.29826 8.50069C7.61162 6.7479 8.15846 5.22198 8.88104 4.08973ZM12 3.49902L11.8843 3.50432C10.6189 3.62008 9.39642 5.62205 8.82871 8.50027H15.1713C14.6052 5.63011 13.3879 3.63131 12.1263 3.50534L12 3.49902ZM15.12 4.08979L15.2268 4.26388C15.896 5.37635 16.4042 6.83623 16.7017 8.50069L19.7498 8.50033C18.8852 6.58892 17.3342 5.05439 15.4112 4.21106L15.12 4.08979Z" fill="white"/>
</g>
</svg>
