<svg width="24" height="24" viewBox="0 0 24 24" fill="none" xmlns="http://www.w3.org/2000/svg">
<g id="Icon / linkedin">
<path id="Vector" d="M5.81818 4C5.33703 4.00343 4.87656 4.19609 4.53632 4.53632C4.19609 4.87656 4.00343 5.33703 4 5.81818V18.1818C4 19.176 4.824 20 5.81818 20H18.1818C19.176 20 20 19.176 20 18.1818V5.81818C20 4.824 19.176 4 18.1818 4H5.81818ZM5.81818 5.45455H18.1818C18.3891 5.45455 18.5455 5.61091 18.5455 5.81818V18.1818C18.5455 18.3891 18.3891 18.5455 18.1818 18.5455H5.81818C5.77013 18.5465 5.72235 18.5379 5.67774 18.52C5.63313 18.5021 5.5926 18.4754 5.55862 18.4414C5.52463 18.4074 5.49788 18.3669 5.48 18.3223C5.46211 18.2776 5.45345 18.2299 5.45455 18.1818V5.81818C5.45455 5.61091 5.61091 5.45455 5.81818 5.45455ZM7.95491 6.70473C7.78824 6.70071 7.62246 6.73006 7.46731 6.79106C7.31215 6.85206 7.17077 6.94348 7.05147 7.05994C6.93217 7.17639 6.83737 7.31553 6.77265 7.46917C6.70792 7.6228 6.67458 7.78783 6.67458 7.95455C6.67458 8.12126 6.70792 8.28629 6.77265 8.43993C6.83737 8.59356 6.93217 8.7327 7.05147 8.84915C7.17077 8.96561 7.31215 9.05703 7.46731 9.11803C7.62246 9.17903 7.78824 9.20838 7.95491 9.20436C8.28116 9.19649 8.5914 9.06136 8.81937 8.82783C9.04733 8.5943 9.17494 8.28089 9.17494 7.95455C9.17494 7.6282 9.04733 7.31479 8.81937 7.08126C8.5914 6.84773 8.28116 6.7126 7.95491 6.70473ZM14.5222 10.0225C13.48 10.0225 12.7869 10.5935 12.5004 11.136H12.4545V10.1818H10.4087V17.0909H12.5455V13.6815C12.5455 12.7811 12.7244 11.9091 13.8407 11.9091C14.9404 11.9091 14.9549 12.9258 14.9549 13.7273V17.0909H17.0909V13.2953C17.0909 11.4378 16.696 10.0225 14.5229 10.0225H14.5222ZM6.90909 10.1818V17.0909H9.06836V10.1818H6.90909Z" fill="white"/>
</g>
</svg>
