<svg width="24" height="24" viewBox="0 0 24 24" fill="none" xmlns="http://www.w3.org/2000/svg">
<g id="Icon / Menu ">
<path id="Vector" d="M2.75281 18.3445H21.2528C21.667 18.3445 22.0028 18.7151 22.0028 19.1722C22.0028 19.5913 21.7207 19.9376 21.3546 19.9924L21.2528 20H2.75281C2.3386 20 2.00281 19.6294 2.00281 19.1722C2.00281 18.7532 2.28497 18.4068 2.65104 18.352L2.75281 18.3445H21.2528H2.75281ZM2.75281 11.1738H21.2528C21.667 11.1738 22.0028 11.5444 22.0028 12.0015C22.0028 12.4206 21.7207 12.7669 21.3546 12.8217L21.2528 12.8293H2.75281C2.3386 12.8293 2.00281 12.4587 2.00281 12.0015C2.00281 11.5825 2.28497 11.2361 2.65104 11.1813L2.75281 11.1738H21.2528H2.75281ZM2.75195 4H21.252C21.6662 4 22.002 4.37061 22.002 4.82777C22.002 5.24684 21.7198 5.59317 21.3537 5.64799L21.252 5.65554H2.75195C2.33774 5.65554 2.00195 5.28494 2.00195 4.82777C2.00195 4.4087 2.28411 4.06237 2.65018 4.00756L2.75195 4H21.252H2.75195Z" fill="#000D40"/>
</g>
</svg>
