<svg width="33" height="32" viewBox="0 0 33 32" fill="none" xmlns="http://www.w3.org/2000/svg">
<g id="Icon">
<g id="Logo vector">
<g id="Icon vecrot">
<path d="M4.17838 31.3333H8.75317C9.57004 31.3333 10.2322 30.6872 10.2322 29.8902V23.5374V16.5411H2.69931V29.8902C2.69931 30.6872 3.36151 31.3333 4.17838 31.3333Z" fill="#FFB432"/>
</g>
<path id="Icon vecrot_2" d="M5.28768 0.666626H18.1687C21.5765 0.666626 24.3565 1.84006 26.4863 4.16477C28.6162 6.51163 29.6923 9.14632 29.6923 12.091C29.6923 15.102 28.5938 17.7588 26.4415 20.0614C24.2892 22.3861 21.4195 23.5374 17.8549 23.5374H10.2322C6.95163 23.5374 2.69931 20.0481 2.69931 16.5411V3.19212C2.69931 1.79733 3.85816 0.666626 5.28768 0.666626Z" fill="#129AFE"/>
<path id="Icon vecrot_3" d="M2.69931 16.5411L2.70063 16.5411L9.95995 16.5411C10.1103 16.5411 10.2322 16.6601 10.2322 16.8068V23.5374C6.95163 23.5374 2.69931 20.0481 2.69931 16.5411Z" fill="#0035FD"/>
</g>
</g>
</svg>
