<svg width="20" height="20" viewBox="0 0 20 20" fill="none" xmlns="http://www.w3.org/2000/svg">
<g id="L_Icon">
<path id="Vector" d="M8.33333 2.29163C11.6701 2.29163 14.375 4.99657 14.375 8.33329C14.375 9.77652 13.869 11.1016 13.0246 12.1406L17.1086 16.2247C17.3527 16.4688 17.3527 16.8645 17.1086 17.1086C16.8867 17.3305 16.5395 17.3506 16.2948 17.1691L16.2247 17.1086L12.1407 13.0246C11.1016 13.8689 9.77656 14.375 8.33333 14.375C4.99661 14.375 2.29166 11.67 2.29166 8.33329C2.29166 4.99657 4.99661 2.29163 8.33333 2.29163ZM8.33333 3.54163C5.68697 3.54163 3.54166 5.68693 3.54166 8.33329C3.54166 10.9797 5.68697 13.125 8.33333 13.125C10.9797 13.125 13.125 10.9797 13.125 8.33329C13.125 5.68693 10.9797 3.54163 8.33333 3.54163Z" fill="#129AFE"/>
</g>
</svg>
