<svg width="24" height="24" viewBox="0 0 24 24" fill="none" xmlns="http://www.w3.org/2000/svg">
<g id="Icon / Youtube">
<path id="Vector" fill-rule="evenodd" clip-rule="evenodd" d="M6.4 7.71429H17.6C17.8122 7.71429 18.0157 7.80459 18.1657 7.96534C18.3157 8.12608 18.4 8.3441 18.4 8.57143V15.4286C18.4 15.6559 18.3157 15.8739 18.1657 16.0347C18.0157 16.1954 17.8122 16.2857 17.6 16.2857H6.4C6.18783 16.2857 5.98434 16.1954 5.83431 16.0347C5.68429 15.8739 5.6 15.6559 5.6 15.4286V8.57143C5.6 8.3441 5.68429 8.12608 5.83431 7.96534C5.98434 7.80459 6.18783 7.71429 6.4 7.71429ZM4 8.57143C4 7.88944 4.25286 7.23539 4.70294 6.75315C5.15303 6.27092 5.76348 6 6.4 6H17.6C18.2365 6 18.847 6.27092 19.2971 6.75315C19.7471 7.23539 20 7.88944 20 8.57143V15.4286C20 16.1106 19.7471 16.7646 19.2971 17.2468C18.847 17.7291 18.2365 18 17.6 18H6.4C5.76348 18 5.15303 17.7291 4.70294 17.2468C4.25286 16.7646 4 16.1106 4 15.4286V8.57143ZM10.4 9.42857L13.6 12L10.4 14.5714V9.42857Z" fill="white"/>
</g>
</svg>
